<svg width="200" height="200" viewBox="0 0 200 200" fill="none" xmlns="http://www.w3.org/2000/svg">
<path fill-rule="evenodd" clip-rule="evenodd" d="M127.544 58.1425H73.8047C70.123 58.1425 67.1166 61.1489 67.1166 64.8306V74.6072C67.1166 78.2889 70.123 81.2952 73.8047 81.2952H81.0006C81.1153 81.2952 81.2088 81.2017 81.2088 81.087V74.9495C81.2088 74.7887 81.382 74.6887 81.5214 74.7691L97.6878 84.1028C97.7539 84.141 97.7919 84.2067 97.7919 84.2832V102.966C97.7919 103.127 97.6187 103.227 97.4796 103.147L90.5156 99.1258L90.5177 99.1224L81.3132 93.808C81.2471 93.7698 81.2091 93.7042 81.2091 93.6277V84.6282C81.2091 84.5135 81.1155 84.42 81.0008 84.42H73.8047C68.3978 84.42 63.9916 80.0137 63.9916 74.607V64.8306C63.9916 59.4239 68.398 55.0173 73.8047 55.0173H127.544C127.639 55.0173 127.72 54.9553 127.745 54.863C129.039 50.0381 135.147 48.3247 138.75 51.9278C141.32 54.4972 141.32 58.6628 138.75 61.2322C135.169 64.8137 129.046 63.1498 127.745 58.2971C127.72 58.2047 127.64 58.1425 127.544 58.1425ZM118.131 74.7691L101.964 84.1028C101.898 84.141 101.86 84.2067 101.86 84.2832V102.966C101.86 103.127 102.033 103.227 102.173 103.147L118.339 93.8083C118.405 93.77 118.443 93.7044 118.443 93.6279V84.6284C118.443 84.5137 118.537 84.4202 118.651 84.4202H125.847C129.529 84.4202 132.535 87.4266 132.535 91.1083V100.885C132.535 104.567 129.529 107.573 125.847 107.573H72.1078C72.0122 107.573 71.9316 107.511 71.9067 107.418C70.6058 102.565 64.4832 100.902 60.9017 104.483C58.3323 107.053 58.332 111.218 60.9017 113.788C64.483 117.369 70.6055 115.705 71.9067 110.852C71.9313 110.76 72.0122 110.698 72.1078 110.698H125.847C131.254 110.698 135.66 106.292 135.66 100.885V91.1083C135.66 85.7016 131.254 81.2952 125.847 81.2952H118.651C118.537 81.2952 118.443 81.2017 118.443 81.087V74.9495C118.443 74.7885 118.27 74.6885 118.131 74.7691ZM83.5456 71.2512L99.7219 80.5906C99.7882 80.6289 99.864 80.6289 99.9301 80.5906L116.106 71.2512C116.246 71.1708 116.246 70.9709 116.106 70.8905L109.135 66.8654L109.137 66.8619L99.9301 61.5467C99.8638 61.5084 99.788 61.5084 99.7219 61.5467L83.5456 70.8905C83.4062 70.9709 83.4062 71.1708 83.5456 71.2512ZM68.5779 124.6V145.655C68.5779 145.763 68.6599 145.852 68.7674 145.862C73.8779 146.323 78.2483 147.117 82.2753 147.849C94.1197 150 102.878 151.592 119.861 141.791C119.866 141.789 119.869 141.786 119.874 141.783L142.811 126.223C145.373 124.484 145.145 120.564 142.057 119.737C141.185 119.503 140.227 119.598 139.396 120.079L118.605 132.082L118.603 132.079C116.643 133.225 115.324 134.245 112.523 134.243L110.856 134.086C110.779 134.079 110.71 134.111 110.666 134.174C109.403 135.972 107.328 137.096 105.077 137.096H87.8308C86.9679 137.096 86.2682 136.396 86.2682 135.533C86.2682 134.67 86.9677 133.971 87.8308 133.971H105.077C108.353 133.971 110.031 129.999 107.69 127.657C107.018 126.986 106.093 126.569 105.077 126.569H87.8308V126.562C87.5719 126.562 87.3095 126.498 87.0679 126.361C80.5022 122.661 75.4226 122.202 68.7214 124.402C68.6343 124.43 68.5779 124.508 68.5779 124.6ZM55 123.541V148.434C55 149.292 55.7076 150 56.5656 150H63.8875C64.7455 150 65.4529 149.292 65.4529 148.434V123.541C65.4529 122.683 64.7455 121.976 63.8875 121.976H56.5656C55.7076 121.976 55 122.683 55 123.541Z" fill="url(#paint0_linear_94_4760)"/>
<defs>
<linearGradient id="paint0_linear_94_4760" x1="99.7756" y1="50.0196" x2="99.7756" y2="150.024" gradientUnits="userSpaceOnUse">
<stop stop-color="#6666CC"/>
<stop offset="0.509804" stop-color="#FF00FF"/>
<stop offset="1" stop-color="#FF6600"/>
</linearGradient>
</defs>
</svg>
