<svg width="200" height="200" viewBox="0 0 200 200" fill="none" xmlns="http://www.w3.org/2000/svg">
<path fill-rule="evenodd" clip-rule="evenodd" d="M129.668 112.827C129.144 112.827 128.62 112.631 128.293 112.107L124.366 106.61L120.243 112.173C118.935 113.94 116.251 111.911 117.56 110.144L122.338 103.73L117.691 97.2513C116.382 95.4843 119.131 93.4555 120.44 95.288L124.432 100.916L128.49 95.4843C129.798 93.7173 132.482 95.7461 131.173 97.5131L126.526 103.796L131.042 110.144C131.827 111.257 130.976 112.827 129.668 112.827ZM132.22 73.1021H67.4293C65.2696 73.1021 65.2696 69.7644 67.4293 69.7644H132.22C134.445 69.7644 134.445 73.1021 132.22 73.1021ZM132.22 82.5916H67.4293C65.2696 82.5916 65.2696 79.1885 67.4293 79.1885H132.22C134.445 79.1885 134.445 82.5916 132.22 82.5916ZM144.458 129.516V69.9607C144.458 60.7984 139.157 53.4031 132.678 53.4031H67.0366C60.4921 53.4031 55.2565 60.7984 55.2565 69.9607V129.516H89.9424H90.0079H90.0733H90.1387H90.2042H90.2696L90.3351 129.581H90.4005H90.466L90.5314 129.647H90.5969H90.6623V129.712H90.7278L90.7932 129.777H90.8586L90.9241 129.843L90.9895 129.908H91.055V129.974H91.1204C91.1204 130.039 91.5785 130.694 91.5785 131.217V136.257H108.071V131.217C108.071 129.974 108.725 129.908 109.445 129.516H109.707H109.772H109.838H144.458ZM51.8534 129.516V69.9607C51.8534 58.966 58.6597 50 67.0366 50H132.678C141.055 50 147.861 58.966 147.861 69.9607V129.516H154.013C154.929 129.516 155.715 130.236 155.715 131.217C155.715 141.558 147.272 150 136.866 150H62.8482C52.4424 150 44 141.558 44 131.217C44 130.236 44.7853 129.516 45.7016 129.516H51.8534ZM88.2408 132.853H47.4686C48.3194 140.576 54.8639 146.662 62.8482 146.662H136.866C144.785 146.662 151.395 140.576 152.246 132.853H111.474V137.958C111.474 138.874 110.688 139.66 109.772 139.66H89.877C88.9607 139.66 88.2408 138.94 88.2408 137.958V132.853ZM91.1859 116.492C90.0733 116.492 89.2225 115.445 89.5497 114.332L95.767 91.034C96.356 88.9398 99.6283 89.856 99.0393 91.9503L92.822 115.249C92.6257 115.969 91.9058 116.492 91.1859 116.492ZM107.809 112.893C104.079 112.893 101.264 110.471 101.461 106.61V96.2042C101.461 94.0445 104.798 94.0445 104.798 96.2042C104.798 98.2984 104.929 105.366 104.798 106.872C104.471 110.406 111.081 110.406 110.754 106.872C110.623 105.432 110.754 98.233 110.754 96.2042C110.754 94.0445 114.157 94.0445 114.157 96.2042V106.61C114.288 110.471 111.474 112.893 107.809 112.893ZM74.5628 111.78C70.8325 111.78 68.0183 109.359 68.2147 105.497V95.0916C68.2147 92.9319 71.5524 92.9319 71.5524 95.0916C71.5524 97.2513 71.6832 104.123 71.5524 105.759C71.2906 109.293 77.8351 109.293 77.5079 105.759C77.377 104.123 77.5079 97.2513 77.5079 95.0916C77.5079 92.9319 80.911 92.9319 80.911 95.0916V105.497C81.0419 109.359 78.2277 111.78 74.5628 111.78ZM85.8848 111.715C84.9686 111.715 84.1832 110.995 84.1832 110.013V95.1571C84.1832 92.9319 87.5864 92.9319 87.5864 95.1571V110.013C87.5864 110.995 86.801 111.715 85.8848 111.715Z" fill="url(#paint0_linear_94_4758)"/>
<defs>
<linearGradient id="paint0_linear_94_4758" x1="99.8465" y1="50.0196" x2="99.8465" y2="150.024" gradientUnits="userSpaceOnUse">
<stop stop-color="#6666CC"/>
<stop offset="0.509804" stop-color="#FF00FF"/>
<stop offset="1" stop-color="#FF6600"/>
</linearGradient>
</defs>
</svg>
