<svg width="200" height="200" viewBox="0 0 200 200" fill="none" xmlns="http://www.w3.org/2000/svg">
<path fill-rule="evenodd" clip-rule="evenodd" d="M55.564 150H143.779C150.706 150 156.343 144.364 156.343 137.436V78.0924V62.564C156.343 55.6367 150.706 50 143.779 50H55.564C48.6367 50 43 55.6367 43 62.564V78.0924V137.436C43 144.364 48.6367 150 55.564 150ZM152.6 137.436V79.9636H46.7425V137.436C46.7425 142.3 50.7 146.258 55.564 146.258H143.779C148.643 146.258 152.6 142.3 152.6 137.436ZM46.7425 76.2212H152.6V62.564C152.6 57.7 148.643 53.7425 143.779 53.7425H55.564C50.7 53.7425 46.7425 57.7 46.7425 62.564V76.2212ZM95.3851 130.479C95.2566 130.479 95.1271 130.466 94.9966 130.439C93.9858 130.226 93.3384 129.233 93.5514 128.222L101.098 92.3919C101.311 91.3811 102.303 90.7337 103.315 90.9467C104.326 91.1597 104.973 92.1517 104.76 93.1635L97.2135 128.994C97.0276 129.875 96.2507 130.479 95.3851 130.479ZM86.5081 122.299C86.86 122.599 87.2913 122.746 87.7194 122.746C88.2488 122.746 88.7751 122.523 89.1458 122.087C89.8151 121.301 89.7212 120.12 88.9338 119.449L78.499 110.563L88.9338 101.677C89.7212 101.008 89.8151 99.8267 89.1458 99.0393C88.4754 98.253 87.2944 98.158 86.5081 98.8284L74.3994 109.139C73.9828 109.495 73.7416 110.015 73.7416 110.563C73.7416 111.113 73.9817 111.633 74.3994 111.989L86.5081 122.299ZM110.198 122.087C110.568 122.523 111.094 122.746 111.623 122.746C112.052 122.746 112.483 122.599 112.835 122.299L124.943 111.989C125.361 111.633 125.601 111.113 125.601 110.563C125.601 110.015 125.361 109.495 124.943 109.139L112.835 98.8284C112.05 98.158 110.867 98.253 110.198 99.0393C109.528 99.8267 109.623 101.008 110.409 101.677L120.844 110.563L110.409 119.449C109.623 120.12 109.528 121.301 110.198 122.087ZM69.0499 65.0878C69.0499 68.352 71.7074 71.0095 74.9717 71.0095C78.2369 71.0095 80.8934 68.352 80.8934 65.0878C80.8934 61.8226 78.2369 59.1661 74.9717 59.1661C71.7074 59.1661 69.0499 61.8226 69.0499 65.0878ZM72.7924 65.0878C72.7924 63.8859 73.7708 62.9085 74.9717 62.9085C76.1735 62.9085 77.1509 63.8859 77.1509 65.0878C77.1509 66.2897 76.1735 67.2671 74.9717 67.2671C73.7708 67.2671 72.7924 66.2897 72.7924 65.0878ZM56.7773 70.9521C53.5121 70.9521 50.8556 68.2956 50.8556 65.0304C50.8556 61.7651 53.5121 59.1087 56.7773 59.1087C60.0426 59.1087 62.699 61.7651 62.699 65.0304C62.699 68.2956 60.0426 70.9521 56.7773 70.9521ZM56.7773 62.8511C55.5765 62.8511 54.598 63.8295 54.598 65.0304C54.598 66.2323 55.5765 67.2097 56.7773 67.2097C57.9792 67.2097 58.9566 66.2323 58.9566 65.0304C58.9566 63.8295 57.9792 62.8511 56.7773 62.8511ZM87.2454 65.1442C87.2454 68.4094 89.9018 71.0659 93.166 71.0659C96.4313 71.0659 99.0878 68.4094 99.0878 65.1442C99.0878 61.88 96.4313 59.2235 93.166 59.2235C89.9018 59.2235 87.2454 61.88 87.2454 65.1442ZM90.9878 65.1442C90.9878 63.9423 91.9652 62.9649 93.166 62.9649C94.3679 62.9649 95.3453 63.9423 95.3453 65.1442C95.3453 66.3461 94.3679 67.3235 93.166 67.3235C91.9652 67.3235 90.9878 66.3461 90.9878 65.1442Z" fill="url(#paint0_linear_94_4764)"/>
<defs>
<linearGradient id="paint0_linear_94_4764" x1="99.6605" y1="50.0196" x2="99.6605" y2="150.024" gradientUnits="userSpaceOnUse">
<stop stop-color="#6666CC"/>
<stop offset="0.509804" stop-color="#FF00FF"/>
<stop offset="1" stop-color="#FF6600"/>
</linearGradient>
</defs>
</svg>
