<svg width="200" height="200" viewBox="0 0 200 200" fill="none" xmlns="http://www.w3.org/2000/svg">
<path fill-rule="evenodd" clip-rule="evenodd" d="M107.192 121.429C106.987 121.429 106.782 121.392 106.586 121.317C106.058 121.112 105.669 120.655 105.55 120.101L103.644 111.177H102.098C96.8836 111.177 92.641 106.935 92.641 101.722V76.2228C92.641 71.0086 96.8833 66.7661 102.098 66.7661H143.958C149.172 66.7661 153.414 71.0084 153.414 76.2228V101.722C153.414 106.936 149.172 111.177 143.958 111.177H122.039L108.169 121.115C107.879 121.322 107.537 121.429 107.192 121.429ZM120.462 151H71.5472C67.6829 151 64.5391 147.855 64.5391 143.991V130.787V125.406C65.0937 125.445 65.6532 125.466 66.2174 125.466C66.7819 125.466 67.3412 125.445 67.896 125.406V132.466H82.9905V137.57C82.9905 139.81 84.8123 141.632 87.0521 141.632H104.957C107.197 141.632 109.018 139.81 109.019 137.571V132.466H124.114V114.534H127.47V130.787V143.992C127.471 146.085 126.548 147.967 125.088 149.252C125.046 149.318 125.006 149.356 124.967 149.356C123.748 150.382 122.176 151 120.462 151ZM104.609 62.1531H87.3991C86.4719 62.1531 85.7208 61.4023 85.7208 60.4748C85.7208 59.5475 86.4719 58.7965 87.3991 58.7965H104.609C105.537 58.7965 106.288 59.5475 106.288 60.4748C106.288 61.4023 105.537 62.1531 104.609 62.1531ZM66.2174 122.109C55.0696 122.109 46 113.039 46 101.892C46 90.7435 55.0696 81.6742 66.2174 81.6742C77.3655 81.6742 86.4348 90.744 86.4348 101.892C86.4348 113.04 77.3658 122.109 66.2174 122.109ZM66.2174 113.425C65.7882 113.425 65.3591 113.26 65.0315 112.932C63.591 111.492 62.1669 110.332 60.7899 109.21C57.4454 106.484 54.5571 104.131 54.5571 99.8438C54.5571 96.1663 57.5495 93.1739 61.227 93.1739C63.597 93.1739 65.1132 94.1187 66.2184 95.4449C67.3226 94.1187 68.8401 93.1739 71.21 93.1739C74.8875 93.1739 77.8799 96.1663 77.8799 99.8438C77.8799 104.131 74.9916 106.484 71.6471 109.21C70.2703 110.332 68.8463 111.492 67.4056 112.932C67.0762 113.26 66.6471 113.425 66.2174 113.425ZM61.2263 96.532C59.3993 96.532 57.9133 98.018 57.9133 99.845C57.9133 102.418 59.6266 103.934 62.9101 106.608C63.9355 107.444 65.0632 108.363 66.2179 109.424C67.3727 108.363 68.5001 107.444 69.5258 106.608C72.8091 103.933 74.5226 102.418 74.5226 99.845C74.5226 98.018 73.0363 96.532 71.2093 96.532C69.7696 96.532 68.9234 96.9384 67.7188 99.3474C67.4346 99.9164 66.8535 100.276 66.2179 100.276C65.5821 100.276 65.001 99.9166 64.7168 99.3484C63.5112 96.9384 62.6658 96.532 61.2263 96.532ZM64.5391 78.378V58.0089C64.5391 54.1443 67.6824 51 71.5473 51H120.462C124.326 51 127.471 54.1443 127.471 58.0089V63.4094H124.113V58.0089C124.113 55.9948 122.475 54.3567 120.461 54.3567H71.5472C69.5341 54.3567 67.8959 55.9948 67.8959 58.0089V78.378C67.3413 78.3386 66.7818 78.3175 66.2173 78.3175C65.6531 78.3175 65.0937 78.3386 64.5391 78.378ZM105.663 132.466H86.3476V137.571C86.3476 137.954 86.67 138.276 87.0523 138.276H104.957C105.34 138.276 105.663 137.954 105.663 137.571V132.466ZM126.565 102.305H118.565C118.157 103.273 117.198 103.955 116.083 103.955H110.342C108.858 103.955 107.65 102.747 107.65 101.263V85.8479C107.65 84.3636 108.858 83.1556 110.342 83.1556H116.083C117.118 83.1556 118.018 83.7434 118.469 84.6023C120.433 83.4389 122.29 81.4634 122.701 78.1172C123.132 74.5997 124.843 73.5682 125.824 73.2666C127.339 72.8007 129.021 73.4088 130.32 74.8951C131.812 76.6004 132.769 79.5054 132.112 82.7213L134.174 82.6635C135.56 82.6449 136.801 83.1467 137.771 84.098C138.748 85.056 139.309 86.3872 139.309 87.751V97.1541C139.309 99.9857 137.003 102.292 134.17 102.296L126.565 102.305ZM118.775 98.9471L134.165 98.937C135.151 98.936 135.953 98.1353 135.953 97.1518V87.7485C135.953 87.2816 135.759 86.8237 135.421 86.4922C135.1 86.1775 134.682 85.9951 134.255 86.0174L129.828 86.1418C129.254 86.1591 128.7 85.8724 128.38 85.389C128.061 84.9048 128.013 84.2895 128.256 83.7622C129.533 80.9866 128.944 78.4185 127.795 77.1039C127.306 76.5447 126.91 76.4448 126.811 76.4745C126.696 76.5102 126.225 76.9622 126.033 78.5253C125.337 84.2013 121.568 86.9464 118.775 88.2171L118.775 98.9471ZM115.419 87.1069V87.0658V86.5125H111.007V100.598H115.419V87.1069Z" fill="url(#paint0_linear_94_4762)"/>
<defs>
<linearGradient id="paint0_linear_94_4762" x1="99.6966" y1="51.0196" x2="99.6966" y2="151.024" gradientUnits="userSpaceOnUse">
<stop stop-color="#6666CC"/>
<stop offset="0.509804" stop-color="#FF00FF"/>
<stop offset="1" stop-color="#FF6600"/>
</linearGradient>
</defs>
</svg>
